<?xml version="1.0" encoding="utf-8"?>
<!-- Generator: Adobe Illustrator 24.0.0, SVG Export Plug-In . SVG Version: 6.00 Build 0)  -->
<svg version="1.1" id="Layer_1" xmlns="http://www.w3.org/2000/svg" xmlns:xlink="http://www.w3.org/1999/xlink" x="0px" y="0px"
	 viewBox="0 0 64 64" style="enable-background:new 0 0 64 64;" xml:space="preserve">
<style type="text/css">
	.st0{fill:#FFFFFF;}
	.st1{fill:#B21634;}
</style>
<g>
	<circle class="st0" cx="32.3" cy="26.1" r="21"/>
	<path class="st1" d="M32,1.4C18.3,1.4,7.2,12.5,7.2,26.2v0.3C7.5,40.2,29.4,62.6,32,62.6c1.9,0,24.5-22.4,24.8-36.1
		c0-0.1,0-0.2,0-0.3C56.8,12.5,45.7,1.4,32,1.4z M32,45.1c-10.5,0-19-8.5-19-19s8.5-19,19-19s19,8.5,19,19S42.5,45.1,32,45.1z"/>
</g>
<g>
	<path class="st1" d="M25.4,25.5c-0.2,0.3-0.1,0.7,0.2,0.9l0.5,0.3c-0.7,0.7-1.8,1.1-2.8,1.1h-1.3v-1.4c0-0.4-0.3-0.7-0.7-0.7
		s-0.7,0.3-0.7,0.7v6.8c0,0.4,0.3,0.7,0.7,0.7s0.7-0.3,0.7-0.7v-1.4h0.9c2.4,0,4.7-1,6.4-2.9l0.7,0.5c0.3,0.2,0.7,0.1,0.9-0.2
		l0.5-0.7l-5.4-3.9L25.4,25.5z"/>
	<path class="st1" d="M43.1,25.6l-0.2-0.2l-5.1,4.1l1.5,1.1c0.3,0.2,0.7,0.2,0.9-0.1l3.1-3.9C43.5,26.3,43.4,25.8,43.1,25.6z"/>
	<path class="st1" d="M42.1,23.3L29.2,14c-0.6-0.4-1.4-0.3-1.8,0.2l-4.2,5.3c-0.5,0.6-0.4,1.5,0.3,1.9l11.4,8.1
		c0.2,0.2,0.6,0.2,0.8,0l6.5-5.2C42.4,24,42.4,23.5,42.1,23.3L42.1,23.3z M37.3,24.4c-0.4,0-0.7-0.3-0.7-0.7c0-0.4,0.3-0.7,0.7-0.7
		c0.4,0,0.7,0.3,0.7,0.7C38,24.1,37.7,24.4,37.3,24.4z"/>
</g>
</svg>
