<?xml version="1.0" encoding="utf-8"?>
<!-- Generator: Adobe Illustrator 24.0.0, SVG Export Plug-In . SVG Version: 6.00 Build 0)  -->
<svg version="1.1" id="Layer_1" xmlns="http://www.w3.org/2000/svg" xmlns:xlink="http://www.w3.org/1999/xlink" x="0px" y="0px"
	 viewBox="0 0 84 84" style="enable-background:new 0 0 84 84;" xml:space="preserve">
<style type="text/css">
	.st0{fill:url(#SVGID_1_);}
	.st1{fill:none;stroke:url(#SVGID_2_);}
	.st2{fill:#FFFFFF;}
	.st3{fill:none;stroke:#B6CFFF;}
</style>
<linearGradient id="SVGID_1_" gradientUnits="userSpaceOnUse" x1="42" y1="85.276" x2="42" y2="1.276" gradientTransform="matrix(1 0 0 -1 0 85.276)">
	<stop  offset="0" style="stop-color:#E8F0FF;stop-opacity:0.48"/>
	<stop  offset="1" style="stop-color:#E8F0FF;stop-opacity:0"/>
	<stop  offset="1" style="stop-color:#E8F0FF;stop-opacity:0"/>
</linearGradient>
<path class="st0" d="M42,0.5L42,0.5c22.9,0,41.5,18.6,41.5,41.5l0,0c0,22.9-18.6,41.5-41.5,41.5l0,0C19.1,83.5,0.5,64.9,0.5,42l0,0
	C0.5,19.1,19.1,0.5,42,0.5z"/>
<linearGradient id="SVGID_2_" gradientUnits="userSpaceOnUse" x1="42" y1="85.276" x2="42" y2="1.276" gradientTransform="matrix(1 0 0 -1 0 85.276)">
	<stop  offset="0" style="stop-color:#E8F0FF"/>
	<stop  offset="0.7656" style="stop-color:#E8F0FF;stop-opacity:0"/>
</linearGradient>
<path class="st1" d="M42,0.5L42,0.5c22.9,0,41.5,18.6,41.5,41.5l0,0c0,22.9-18.6,41.5-41.5,41.5l0,0C19.1,83.5,0.5,64.9,0.5,42l0,0
	C0.5,19.1,19.1,0.5,42,0.5z"/>
<g>
	<path class="st2" d="M42,16L42,16c14.4,0,26,11.6,26,26l0,0c0,14.4-11.6,26-26,26l0,0c-14.4,0-26-11.6-26-26l0,0
		C16,27.6,27.6,16,42,16z"/>
	<path class="st3" d="M42,16.5L42,16.5c14.1,0,25.5,11.4,25.5,25.5l0,0c0,14.1-11.4,25.5-25.5,25.5l0,0c-14.1,0-25.5-11.4-25.5-25.5
		l0,0C16.5,27.9,27.9,16.5,42,16.5z"/>
</g>
</svg>
