<svg width="84" height="84" viewBox="0 0 84 84" fill="none" xmlns="http://www.w3.org/2000/svg">
<rect x="0.5" y="0.5" width="83" height="83" rx="41.5" fill="url(#paint0_linear_15787_19358)"/>
<rect x="0.5" y="0.5" width="83" height="83" rx="41.5" stroke="url(#paint1_linear_15787_19358)"/>
<g filter="url(#filter0_d_15787_19358)">
<rect x="16" y="16" width="52" height="52" rx="26" fill="white"/>
<rect x="16.5" y="16.5" width="51" height="51" rx="25.5" stroke="#B6CFFF"/>
<path d="M44 43H40C37.2386 43 35 45.2386 35 48V50C35 50.5523 35.4477 51 36 51H48C48.5523 51 49 50.5523 49 50V48C49 45.2386 46.7614 43 44 43Z" fill="#4639E9"/>
<path d="M42 41C44.2091 41 46 39.2091 46 37C46 34.7909 44.2091 33 42 33C39.7909 33 38 34.7909 38 37C38 39.2091 39.7909 41 42 41Z" fill="#4639E9"/>
</g>
<defs>
<filter id="filter0_d_15787_19358" x="12" y="14" width="60" height="60" filterUnits="userSpaceOnUse" color-interpolation-filters="sRGB">
<feFlood flood-opacity="0" result="BackgroundImageFix"/>
<feColorMatrix in="SourceAlpha" type="matrix" values="0 0 0 0 0 0 0 0 0 0 0 0 0 0 0 0 0 0 127 0" result="hardAlpha"/>
<feOffset dy="2"/>
<feGaussianBlur stdDeviation="2"/>
<feColorMatrix type="matrix" values="0 0 0 0 0.701961 0 0 0 0 0.831373 0 0 0 0 0.992157 0 0 0 0.04 0"/>
<feBlend mode="normal" in2="BackgroundImageFix" result="effect1_dropShadow_15787_19358"/>
<feBlend mode="normal" in="SourceGraphic" in2="effect1_dropShadow_15787_19358" result="shape"/>
</filter>
<linearGradient id="paint0_linear_15787_19358" x1="42" y1="0" x2="42" y2="84" gradientUnits="userSpaceOnUse">
<stop stop-color="#E8F0FF" stop-opacity="0.48"/>
<stop offset="1" stop-color="#E8F0FF" stop-opacity="0"/>
<stop offset="1" stop-color="#E8F0FF" stop-opacity="0"/>
</linearGradient>
<linearGradient id="paint1_linear_15787_19358" x1="42" y1="0" x2="42" y2="84" gradientUnits="userSpaceOnUse">
<stop stop-color="#E8F0FF"/>
<stop offset="0.765625" stop-color="#E8F0FF" stop-opacity="0"/>
</linearGradient>
</defs>
</svg>
