<svg width="12" height="15" viewBox="0 0 12 15" fill="none" xmlns="http://www.w3.org/2000/svg">
<path d="M4.66675 0.666626H7.33341M4.66675 13.4907C5.02059 13.8074 5.48785 13.9999 6.00008 13.9999C6.51232 13.9999 6.97958 13.8074 7.33341 13.4907M1.39004 11.6666C0.85305 11.6666 0.503794 11.1604 0.743941 10.7302L1.62569 9.15051C2.12721 8.25203 2.38831 7.2613 2.38831 6.25677V5.8431C2.38831 4.74523 2.99878 3.77509 3.93224 3.19019C3.9766 3.16239 4.0217 3.13546 4.0675 3.10942C4.62633 2.79176 5.28923 2.6078 6.00008 2.6078C6.71094 2.6078 7.37383 2.79176 7.93267 3.10942C7.97846 3.13546 8.02356 3.16239 8.06793 3.19019C9.00139 3.77509 9.61186 4.74523 9.61186 5.8431V6.25677C9.61186 7.2613 9.87295 8.25203 10.3745 9.15051L11.2562 10.7302C11.4964 11.1604 11.1471 11.6666 10.6101 11.6666H8.00008H4.00008H1.39004Z" stroke="#0D0D12" stroke-width="1.33333" stroke-linecap="round"/>
</svg>
