<?xml version="1.0" encoding="utf-8"?>
<!-- Generator: Adobe Illustrator 24.0.0, SVG Export Plug-In . SVG Version: 6.00 Build 0)  -->
<svg version="1.1" id="Calque_1" xmlns="http://www.w3.org/2000/svg" xmlns:xlink="http://www.w3.org/1999/xlink" x="0px" y="0px"
	 viewBox="0 0 156 156" style="enable-background:new 0 0 156 156;" xml:space="preserve">
<style type="text/css">
	.st0{fill:#4639E9;}
</style>
<title>favicon</title>
<path class="st0" d="M129.8,65.3c-0.3,0.8-0.6,1.6-0.9,2.5c-2.8,7.7-5.7,15.4-8.5,23.1c-0.1,0.2-0.2,0.4-0.5,0.4h-12.8h-0.3l1.1-2.5
	l10.3-22.6l4.4-9.7c0.1-0.2,0.3-0.4,0.5-0.3h13.8c0.2,0,0.5,0.1,0.5,0.3L153.1,91c0,0.1,0.1,0.2,0.1,0.3h-13.4
	c-0.3,0-0.5-0.1-0.6-0.4c-0.6-1.7-1.2-3.3-1.9-5c-0.1-0.3-0.3-0.4-0.5-0.4c-3.9,0-7.8,0-11.6,0h-0.5c0.3-0.9,0.6-1.7,1-2.6
	c0.6-1.5,1.2-3,1.7-4.6c0.1-0.3,0.4-0.5,0.7-0.5c2,0,4,0,6,0h0.5C133,73.7,131.5,69.5,129.8,65.3L129.8,65.3z"/>
<path class="st0" d="M70.3,79.5l12.1-0.6c0.2,0.7,0.4,1.4,0.7,2.1c0.8,1.9,2.4,3.2,4.4,3.5c1.7,0.4,3.4,0.3,5.1-0.1
	c0.9-0.3,1.8-0.8,2.4-1.6c0.8-1,0.8-2.4-0.1-3.3c-0.7-0.8-1.7-1.4-2.8-1.6c-1.8-0.5-3.6-0.9-5.4-1.2C83.3,76,80,75,77,73.6
	c-1.6-0.8-3-1.9-4-3.3c-1.8-2.8-1.6-6.4,0.5-9c1.5-1.8,3.5-3.1,5.8-3.8c2-0.7,4-1.1,6.1-1.2c1.7-0.1,3.3-0.2,5-0.1
	c3.1,0,6.2,0.5,9.2,1.5c3.8,1.2,6.5,4.5,6.9,8.5c0,0.1,0,0.1,0,0.2l-12,0.6c-0.1-0.3-0.2-0.7-0.3-1c-0.4-1.4-1.5-2.5-2.8-2.9
	c-1.8-0.7-3.9-0.7-5.8-0.1c-0.5,0.2-0.9,0.4-1.3,0.7c-0.8,0.6-1,1.7-0.4,2.5c0.2,0.3,0.5,0.5,0.9,0.6c1,0.4,2,0.7,3,0.9
	c3.5,0.7,7,1.3,10.5,2.3c2.2,0.6,4.3,1.5,6.1,2.9c2.3,1.7,3.7,4.4,3.5,7.3c-0.1,2.2-0.9,4.2-2.3,5.8c-1.9,2.2-4.4,3.7-7.1,4.4
	c-2.2,0.6-4.5,0.9-6.8,1c-3.3,0.2-6.6,0-9.8-0.6c-2.3-0.3-4.6-1.1-6.5-2.4c-2.8-2-4.6-5-5-8.4C70.3,79.7,70.3,79.6,70.3,79.5z"/>
<path class="st0" d="M67.6,69.9v6.7H54.5v7.2h13v7.5h-26V56.1h26v7.1h-13v6.7C54.5,69.9,67.6,69.9,67.6,69.9z"/>
<path class="st0" d="M23.5,56.2h13v19.1c0,2.2-0.2,4.3-0.6,6.5c-0.6,2.8-2.4,5.3-4.9,6.7c-2.1,1.3-4.4,2.1-6.9,2.4
	c-3.8,0.5-7.6,0.3-11.3-0.4c-2.2-0.4-4.2-1.4-5.9-2.8c-2.1-1.8-3.5-4.2-3.9-6.9c-0.2-0.8-0.2-1.7-0.4-2.6l1.5-0.1l7.6-0.4
	c1,0,2-0.1,3.1-0.2c0.3,0,0.4,0.1,0.4,0.4c0,0.8,0.1,1.6,0.3,2.3c0.4,1.9,2.2,3.2,4.1,2.9c0.4,0,0.9-0.1,1.3-0.2
	c1.2-0.4,2.1-1.4,2.3-2.7c0.2-0.8,0.3-1.7,0.3-2.5c0-7,0-14,0-21L23.5,56.2z"/>
</svg>
