<?xml version="1.0" encoding="utf-8"?>
<!-- Generator: Adobe Illustrator 24.0.0, SVG Export Plug-In . SVG Version: 6.00 Build 0)  -->
<svg version="1.1" id="Layer_1" xmlns="http://www.w3.org/2000/svg" xmlns:xlink="http://www.w3.org/1999/xlink" x="0px" y="0px"
	 viewBox="0 0 2966 696.8" style="enable-background:new 0 0 2966 696.8;" xml:space="preserve">
<style type="text/css">
	.st0{fill:#4639E9;}
</style>
<title>logo-jesa</title>
<g id="Layer_3">
	<path class="st0" d="M2505,181.2c-5.9,15.8-11.8,31.5-17.7,49.2C2432.1,382,2375,533.7,2319.9,685.3c-2,3.9-3.9,7.9-9.9,7.9h-258
		l21.7-49.2l202.9-445.1l86.6-191c2-3.9,5.9-7.9,9.9-5.9h271.8c3.9,0,9.9,2,9.9,5.9L2964,687.3c0,2,2,3.9,2,5.9h-263.9
		c-5.9,0-9.8-2-11.8-7.9c-11.8-33.5-23.6-65-37.4-98.5c-2-5.9-5.9-7.9-9.9-7.9h-238.3c5.7-17.4,12.3-34.5,19.7-51.2
		c11.8-29.5,23.6-59.1,33.5-90.6c2.1-5.8,7.6-9.8,13.8-9.8h128C2568,346.6,2538.5,263.9,2505,181.2L2505,181.2z"/>
	<path class="st0" d="M1333.3,460.8l238.3-11.8c3.9,13.8,7.9,27.6,13.8,41.4c15.8,37.4,47.3,63,86.7,68.9c33.5,7.9,67,5.9,100.4-2
		c17.7-5.9,35.4-15.8,47.3-31.5c15.8-19.7,15.8-47.3-2-65c-14.3-16.4-33.7-27.5-55.1-31.5c-35-9.8-70.5-17.6-106.3-23.6
		c-67-13.8-132-33.5-191-61c-31.5-15.8-59.1-37.4-78.8-65c-35.4-55-31.5-126.5,9.8-177.2c29.5-35.4,68.9-61.1,114.2-74.8
		C1549.3,14,1589.7,6,1630.7,4.1c33.5-2,65-3.9,98.5-2c61.6,0.1,122.8,10.1,181.2,29.6c74.8,23.4,128.3,89.4,135.8,167.4v3.9
		l-236.3,11.8c-2-5.9-3.9-13.8-5.9-19.7c-7.9-27.6-29.5-49.2-55.2-57.1c-35.4-13.8-76.8-13.8-114.2-2c-9.8,3.9-17.7,7.9-25.6,13.8
		c-15.8,11.8-19.7,33.5-7.9,49.2c3.9,5.9,9.8,9.9,17.7,11.8c19.1,7.7,38.9,13.6,59.1,17.7c68.9,13.8,137.8,25.6,206.8,45.3
		c43.3,11.8,84.7,29.5,120.1,57.1c45.3,33.5,72.9,86.6,68.9,143.8c-2,43.3-17.7,82.7-45.3,114.2c-36.7,42.4-85.5,72.7-139.8,86.7
		c-43.3,11.8-88.6,17.7-133.9,19.7c-64.6,4-129.4,0-193-11.8c-45.3-5.9-90.6-21.7-128-47.3c-55.1-39.4-90.6-98.5-98.5-165.4
		C1333.3,464.8,1333.3,462.8,1333.3,460.8z"/>
	<path class="st0" d="M1280.1,271.8v132h-258v141.7h256v147.7h-512V0h512v139.8h-256v131.9L1280.1,271.8L1280.1,271.8z"/>
	<path class="st0" d="M411.6,2h256v376.1c0,42.9-4,85.8-11.8,128c-11.8,55.1-47.3,104.4-96.5,132c-41.3,25.6-86.6,41.4-135.9,47.3
		c-74.8,9.8-149.7,5.9-222.5-7.9c-43.3-7.9-82.7-27.6-116.2-55.1c-41.3-35.5-68.9-82.7-76.8-135.9C4,470.7,4,453,0,435.3l29.5-2
		l149.7-7.9c19.7,0,39.4-2,61.1-3.9c5.9,0,7.9,2,7.9,7.9c-0.1,15.3,1.9,30.5,5.9,45.3c7.9,37.4,43.3,63,80.8,57.1
		c7.9,0,17.7-2,25.6-3.9c23.6-7.9,41.4-27.6,45.3-53.2c3.9-16.1,5.9-32.6,5.9-49.2L411.6,2z"/>
</g>
</svg>
