<?xml version="1.0" encoding="utf-8"?>
<!-- Generator: Adobe Illustrator 24.0.0, SVG Export Plug-In . SVG Version: 6.00 Build 0)  -->
<svg version="1.1" id="Layer_1" xmlns="http://www.w3.org/2000/svg" xmlns:xlink="http://www.w3.org/1999/xlink" x="0px" y="0px"
	 viewBox="0 0 187.2 283" style="enable-background:new 0 0 187.2 283;" xml:space="preserve">
<style type="text/css">
	.st0{fill:#4639E9;}
	.st1{fill:#311EAA;}
</style>
<title>logo-jesa-s</title>
<path class="st0" d="M105.3,211.8l0.6-4.1c0.2,0.6,0.4,1.1,0.8,2.1c0.1-0.4,0.1-0.9,0.1-1.3v-98c0.1-0.6,0.1-1.2-0.1-1.8
	c-0.3-0.5-0.5,0.3-0.8,0.4c-0.7-1-1.7-0.9-2.7-0.9c-2,0-4,0-6-0.1c-5.1-0.2-8-2.3-9.7-7.4c-2.9-8.9-5.6-17.9-8.4-26.9
	c-1.7-5.3-3.3-10.7-5-16c-2.1-6.9,1.8-12.6,9-12.8c4.1-0.2,8.2,0,12.3,0.1c2,0.1,3-0.5,2.7-2.7c-0.2-1.5-0.1-3,0.1-4.5
	c0.4-3.5,3.4-6.2,6.9-6.3c2.8-0.1,6.3,0.9,8.2-0.5s0.4-5,0.7-7.7c0.2-1.7,1-2.6,2.7-2.6c1.2-0.1,2.3,0.9,2.4,2.1c0,0,0,0.1,0,0.1
	v0.3c0.2,1.6,0.2,3.1-0.1,4.7c-1.3,1-1.1,2,0,3c0.1,0,0.2,0.1,0.3,0.1c8.3,1.5,8.6,1.2,8.6-7v-9.9c0-2.3,0.2-4.4-1.7-6.4
	c-1.7-1.8-0.9-5.1,1.1-6.7c1.9-1.5,4.7-1.5,6.6,0.1c1.9,1.6,2.5,4.9,0.7,6.8s-1.6,3.8-1.6,5.8c0,4.9,0.1,9.8,0,14.7
	c-0.1,2.3,0.7,2.9,2.9,2.8c6-0.1,12,0,18,0s8.7,2.7,8.9,8.5c0.1,5,0.1,5,5,4.9c3.3,0,6.6-0.1,9.9,0c7,0.3,11,5.7,9,12.3
	c-4.3,14.5-8.7,28.9-13.2,43.3c-1.6,5.3-4.9,7.5-10.5,7.6c-2.5,0-5.7-1.1-7.2,0.4s-0.6,5-0.6,7.5c0,29.9,0.3,59.8-0.1,89.7
	c-0.5,29.6-14.1,52-39.4,67c-18.3,10.9-38.2,13.1-58.8,7.4c-0.8-0.2-1.6-0.2-2.2-0.9c0-0.8-0.8-1.1-1.3-1.5
	c-0.4-0.3-0.4-0.8-0.1-1.2s0.8-0.4,1.2-0.1c3.3,2,6.8,1.3,10.3,0.6c12.8-2.4,24.1-9.8,31.5-20.5c6.7-9.4,10.2-20.7,9.9-32.3v-8.4
	C106.4,214.3,106.1,212.9,105.3,211.8z M130.5,61.2c-4.4,0-8.8,0.1-13.2,0c-2.2-0.1-2.7,0.6-2.4,2.7c1.4,8.7,2.7,17.3,3.8,26
	c0.3,1.9,0.9,2.5,2.8,2.5c6-0.1,12-0.1,17.9,0c1.7,0,2.5-0.5,2.8-2.3c1.2-8.7,2.4-17.4,3.9-26c0.4-2.6-0.5-3-2.8-3
	C139.1,61.3,134.7,61.2,130.5,61.2z M156.3,92.3c1.3,0,2.6-0.1,3.9,0c2,0.3,3.8-1,4.2-3c2.6-8.4,5.1-16.8,7.6-25.2
	c0.6-2-0.1-2.8-2.1-2.8c-4.1,0-8.2,0.1-12.3-0.1c-2.2-0.1-3,0.6-3.2,2.7c-1,7.6-2.2,15.2-3.2,22.8C150.4,92.4,150.5,92.4,156.3,92.3
	z M97.7,61.3L97.7,61.3c-2,0-4,0.1-6,0c-2.7-0.1-3.3,0.9-2.5,3.4c2.4,7.5,4.6,15,6.9,22.6c1.5,4.9,1.6,4.9,6.9,5
	c1.6,0,3.2-0.1,4.8,0c2.4,0.2,2.9-0.7,2.5-2.9c-1.2-7.8-2.2-15.8-3.5-23.6c-0.8-5.3,0.1-4.4-5.2-4.5C100.3,61.2,99,61.3,97.7,61.3z
	 M127.7,32.1c-2.8,0-4.7-0.5-6.6,0.6C123.1,32.7,125.1,34.2,127.7,32.1z"/>
<path class="st0" d="M105.3,211.8c0.8,1.3,1.1,2.8,1,4.3v8.4c0.3,11.6-3.2,22.9-9.9,32.3c-7.4,10.7-18.7,18-31.5,20.5
	c-3.5,0.7-7,1.4-10.3-0.6c-0.4-0.3-0.9-0.3-1.2,0.1s-0.3,0.9,0.1,1.2l0,0c0.5,0.5,1.2,0.7,1.3,1.5c-16.6-5.1-29.8-15-40-28.9
	c-9-12.2-14.2-26.8-14.8-42c-0.1-2,0.4-2.5,2.4-2.5c14.8,0.1,29.5,0.1,44.3,0c2,0,2.6,0.5,2.9,2.6c3,21.5,26.7,32.1,44.2,19.9
	C99.6,224.6,103.7,218.6,105.3,211.8z"/>
<path class="st0" d="M106,109.2c0.3-0.1,0.5-0.9,0.8-0.4c0.2,0.6,0.2,1.2,0.1,1.8v98c0,0.4,0,0.9-0.1,1.3c-0.4-1-0.6-1.5-0.8-2.1
	l-0.1-96.8C105.9,110.4,106,109.8,106,109.2z"/>
<path class="st1" d="M119.1,31.3c-1-1-1.2-2,0-3C119.4,29.3,119.4,30.3,119.1,31.3z"/>
<path class="st1" d="M127.7,32.1c-2.7,2.1-4.7,0.6-6.6,0.6C123,31.6,125,32.1,127.7,32.1z"/>
</svg>
