<?xml version="1.0" encoding="utf-8"?>
<!-- Generator: Adobe Illustrator 24.0.0, SVG Export Plug-In . SVG Version: 6.00 Build 0)  -->
<svg version="1.1" id="Layer_1" xmlns="http://www.w3.org/2000/svg" xmlns:xlink="http://www.w3.org/1999/xlink" x="0px" y="0px"
	 viewBox="0 0 583.3 282.9" style="enable-background:new 0 0 583.3 282.9;" xml:space="preserve">
<style type="text/css">
	.st0{fill:#4639E9;}
	.st1{fill:#311EAA;}
	.st2{display:none;}
	.st3{display:inline;fill:#4639E9;}
</style>
<title>logo</title>
<path class="st0" d="M105.2,211.4l0.6-4.1c0.2,0.6,0.4,1.1,0.8,2.1c0.1-0.7,0.1-1,0.1-1.3v-98c0.1-0.6,0.1-1.2-0.1-1.8
	c-0.3-0.5-0.5,0.3-0.8,0.4c-0.7-1-1.7-0.9-2.7-0.9c-2,0-4,0-6-0.1c-5.1-0.2-8-2.3-9.7-7.4c-2.9-8.9-5.6-17.9-8.4-26.9
	c-1.7-5.3-3.3-10.7-5-16c-2.1-6.9,1.8-12.6,9-12.8c4.1-0.2,8.2,0,12.3,0.1c2,0.1,3-0.5,2.7-2.7c-0.2-1.5-0.1-3,0.1-4.5
	c0.4-3.5,3.4-6.2,6.9-6.3c2.8-0.1,6.3,0.9,8.2-0.5s0.4-5,0.7-7.7c0.2-1.7,1-2.6,2.7-2.6c1.3-0.1,2.3,0.9,2.4,2.2c0,0.1,0,0.2,0,0.3
	c0.2,1.6,0.2,3.1-0.1,4.7c-1.3,1-1.1,2,0,3c0.1,0,0.2,0.1,0.3,0.1c8.3,1.5,8.6,1.2,8.6-7c0-3.3,0-6.6,0-9.9c0-2.3,0.2-4.4-1.7-6.4
	c-1.7-1.8-0.9-5.1,1.1-6.7c2-1.5,4.7-1.5,6.6,0.1c1.9,1.6,2.5,4.9,0.7,6.8s-1.6,3.8-1.6,5.8c0,4.9,0.1,9.8,0,14.7
	c-0.1,2.3,0.7,2.9,2.9,2.8c6-0.1,12,0,18,0s8.7,2.7,8.9,8.5c0.1,5,0.1,5,5,4.9c3.3,0,6.6-0.1,9.9,0c7,0.3,11,5.7,9,12.3
	c-4.3,14.5-8.7,28.9-13.2,43.3c-1.6,5.3-4.9,7.5-10.5,7.6c-2.5,0-5.7-1.1-7.2,0.4c-1.6,1.6-0.6,5-0.6,7.5c0,29.9,0.3,59.8-0.1,89.7
	c-0.5,29.6-14.1,52-39.4,67c-18.3,10.9-38.2,13.1-58.8,7.4c-0.8-0.2-1.6-0.2-2.2-0.9c0-0.8-0.8-1.1-1.3-1.5
	c-0.4-0.3-0.4-0.8-0.1-1.2c0.3-0.4,0.8-0.4,1.2-0.1c3.3,2,6.8,1.3,10.3,0.6c12.8-2.4,24.1-9.8,31.5-20.5c6.7-9.4,10.2-20.7,9.9-32.3
	c0-2.8,0-5.6,0-8.4C106.3,214.1,106,212.7,105.2,211.4z M130.4,60.8c-4.4,0-8.8,0.1-13.2,0c-2.2-0.1-2.7,0.6-2.4,2.7
	c1.4,8.7,2.7,17.3,3.8,26c0.3,1.9,0.9,2.5,2.8,2.5c6-0.1,12-0.1,17.9,0c1.7,0,2.5-0.5,2.8-2.3c1.2-8.7,2.4-17.4,3.9-26
	c0.4-2.6-0.5-3-2.8-3C139,60.9,134.6,60.8,130.4,60.8z M156.2,91.9c1.3,0,2.6-0.1,3.9,0c2,0.3,3.8-1.1,4.2-3
	c2.6-8.4,5.1-16.8,7.6-25.2c0.6-2-0.1-2.8-2.1-2.8c-4.1,0-8.2,0.1-12.3-0.1c-2.2-0.1-3,0.6-3.2,2.7c-1,7.6-2.2,15.2-3.2,22.8
	C150.3,92,150.4,92,156.2,91.9z M97.6,60.9L97.6,60.9c-2,0-4,0.1-6,0c-2.7-0.1-3.3,0.9-2.5,3.4c2.4,7.5,4.6,15,6.9,22.6
	c1.5,4.9,1.6,4.9,6.9,5c1.6,0,3.2-0.1,4.8,0c2.4,0.2,2.9-0.7,2.5-2.9c-1.2-7.8-2.2-15.8-3.5-23.6c-0.8-5.3,0.1-4.4-5.2-4.5
	C100.2,60.8,98.9,60.9,97.6,60.9z M127.6,31.7c-2.8,0-4.7-0.5-6.6,0.6C123,32.3,125,33.8,127.6,31.7L127.6,31.7z"/>
<path class="st1" d="M105.2,211.4c0.8,1.3,1.1,2.8,1,4.3c0,2.8,0,5.6,0,8.4c0.3,11.5-3.2,22.9-9.9,32.3c-7.4,10.7-18.7,18-31.5,20.5
	c-3.5,0.7-7,1.4-10.3-0.6c-0.4-0.3-0.9-0.2-1.2,0.1c-0.3,0.4-0.2,0.9,0.1,1.2l0,0c0.5,0.5,1.2,0.7,1.3,1.5
	c-16.6-5.1-29.8-15-40-28.9c-9-12.2-14.2-26.8-14.8-42c-0.1-2,0.4-2.5,2.4-2.5c14.8,0.1,29.5,0.1,44.3,0c2,0,2.6,0.5,2.9,2.6
	c3,21.5,26.7,32.1,44.2,19.9C99.5,224.2,103.6,218.2,105.2,211.4z"/>
<path class="st1" d="M495.2,224c2.5-7.1,4.9-13.7,7.2-20.3c0.6-1.7,1-3.1,3.5-3.1s2.8,1.7,3.4,3.3c1.9,5.8,3.7,11.7,5.8,17.5
	c0.2,0.6,0,2.1,1.3,2c1-0.1,0.8-1.2,1-1.9c2.1-6.1,4.2-12.3,6.3-18.4c0.6-2,2.8-3.2,4.9-2.5c0.1,0,0.2,0.1,0.2,0.1
	c1.1,0.4,0.6,1.1,0.4,1.7c-3.2,9.1-6.4,18.2-9.5,27.3c-0.8,2.3-2.4,1.2-3.7,1.4c-1.7,0.3-2.5-0.4-3.1-2c-2-5.9-4.1-11.7-6.2-17.5
	c-0.3-0.7-0.1-1.9-1.2-1.8s-0.7,1.1-1,1.9c-2.1,6.1-4.4,12.2-6.5,18.3c-0.7,1.9-2.1,1-3.3,1.1s-2.4,0.5-3-1.2
	c-3.2-9.2-6.3-18.5-9.6-27.7c-0.4-1.3,0-1.4,1.2-1.6c2.7-0.3,4.1,0.5,4.8,3.3c1.6,5.9,3.6,11.7,5.5,17.5
	C494.1,222.4,494.6,223.2,495.2,224z"/>
<path class="st1" d="M225.1,190.4c3.6,0.5,8.3,1.5,11.9,5.1c2,1.9-0.4,2.5-1,3.6s-1.4,1.6-2.6,0.4c-7.4-7.4-21.6-3.7-24.2,8.1
	c-2.4,11.3,7.5,21.4,18.6,18.4c2-0.4,3.8-1.5,5.2-3c1.5-1.8,2.4-1.1,3.8,0.2s1.5,2.4,0,3.9c-7.1,7.1-25.8,7.5-31.8-7.9
	C199.3,204.8,209,190.1,225.1,190.4z"/>
<path class="st1" d="M548.9,217.8c-3.3,0-6.6,0.1-9.9,0c-1.8-0.1-2,0.6-1.5,2.1c2.1,6.4,10.7,8.9,16.3,4.5c1.9-1.5,2.5-1.1,3.8,0.5
	c1.5,1.8,0.6,2.6-0.7,3.6c-5,4-14.2,4.2-19.4,0.4c-5.8-4.3-7.9-12.6-4.8-19.7c2.7-6.2,9.1-9.7,16.2-8.4c8.3,1.4,11.8,8.9,11.7,15.6
	c0,1.4-0.8,1.6-1.9,1.6C555.5,217.8,552.2,217.8,548.9,217.8z M546.1,213.7L546.1,213.7c2.5,0,5,0,7.5,0c1.2,0,1.9-0.1,1.5-1.6
	c-0.9-4-4.6-6.9-8.7-6.9c-4.1-0.1-7.8,2.6-9,6.6c-0.4,1.4,0,2,1.5,2C541.3,213.6,543.7,213.7,546.1,213.7L546.1,213.7z"/>
<path class="st1" d="M386.5,215.9c0,9.2-6.1,15.6-14.9,15.6c-9.2,0-15.4-6.3-15.4-15.8c0-8.9,6.4-15.4,15.2-15.4
	S386.5,206.9,386.5,215.9z M380.9,216c0-6.3-3.7-10.6-9.2-10.6c-5.8-0.1-9.9,4.2-9.9,10.4c0,6.3,3.8,10.7,9.5,10.8
	S380.9,222.4,380.9,216z"/>
<path class="st1" d="M256.9,200.4c8.6-0.2,14.9,6.1,15.2,15.1c0.3,9.3-5.8,15.8-14.8,16.1c-8.8,0.2-15.3-6.1-15.5-15.1
	C241.5,207.1,247.6,200.6,256.9,200.4z M266.4,216.2c0-6.5-3.5-10.6-9.1-10.7c-5.9,0-10.1,4.1-10,10.2c0,6.4,3.9,10.7,9.6,10.8
	C262.6,226.5,266.4,222.5,266.4,216.2z"/>
<path class="st1" d="M449.6,215.7c0-8.8,6.3-15.3,14.9-15.4c8.9-0.1,15.4,6.6,15.2,16c-0.1,8.3-5.8,15.4-15.1,15.3
	C456,231.6,449.6,225,449.6,215.7z M455.2,216c0,6.4,3.9,10.6,9.7,10.5s9.5-4.5,9.5-10.8c0-6.1-3.9-10.3-9.6-10.4
	C459.3,205.2,454.9,209.5,455.2,216z"/>
<path class="st1" d="M284.4,204c2.9-2,5.9-3.6,9.5-3.6c6.8,0,11.2,3.7,11.9,10.4c0.7,6.1,0.2,12.2,0.3,18.3c0,3.3-3,1-4.4,2
	c-1,0.7-0.9-1.3-0.9-2.1c-0.1-5.6,0.4-11.1-0.3-16.7c-0.5-4.1-2.9-6.3-7.1-6.7c-3.7-0.4-7.2,1.8-8.4,5.3c-1.4,4.9-0.5,9.9-0.8,14.9
	c-0.1,0.9-0.1,1.8,0,2.7c0.4,2.4-0.7,2.8-2.9,2.8s-2.7-0.5-2.6-2.7c0.1-8.4,0-16.8,0.1-25.2c0-1.2-0.8-3,1.7-2.9
	c1.8,0.1,4.1-0.5,3.6,2.7C284.1,203.4,284.2,203.6,284.4,204z"/>
<path class="st1" d="M437.2,213.7c0,5.1-0.1,10.2,0,15.3c0.1,2.5-1.3,2.1-2.8,2.1s-2.9,0.4-2.9-2.1c0.1-10.1,0-20.2,0.1-30.3
	c0-2.5-0.7-3.1-3-2.9c-2.5,0.2-5,0-7.5,0.1c-1.9,0.1-2.6-0.3-2.6-2.4s0.5-2.7,2.7-2.7c8.9,0.1,17.8,0.1,26.7,0c2.3,0,2.3,1,2.4,2.7
	s-0.3,2.6-2.3,2.5c-2.5-0.2-5,0.1-7.5-0.1s-3.5,0.5-3.4,3.2C437.4,203.9,437.2,208.9,437.2,213.7z"/>
<path class="st1" d="M316,215.3c0-1.8-0.1-3.6,0-5.4c0.2-2.7,0.3-5.1-3.7-4.4c-2,0.3-1.2-1.4-1.2-2.3s-0.7-2.7,1.2-2.3
	c4.3,0.8,3.9-2,3.6-4.6c-0.2-1.9,0.4-2.7,2.4-2.5c1.7,0.1,3.3-0.2,3.1,2.6c-0.2,4.5,0,4.6,4.8,4.5c2.4-0.1,3.8,0.3,3.4,3.2
	c-0.2,1.4-0.7,1.6-1.9,1.6c-2.1,0.1-4.8-0.9-6,0.5s-0.4,4.2-0.4,6.4c0,3,0,6,0,9c0.1,4.4,2.6,6.4,6.6,4.8c2.2-0.9,2.2,0.3,2.9,1.5
	c0.9,1.6,0.3,2.5-1.2,3c-6.4,2.1-13.7,1-13.7-8.5C315.9,219.9,315.9,217.6,316,215.3L316,215.3z"/>
<path class="st1" d="M572.8,204.6c2.2-2.4,5.2-3.9,8.4-4.2c1.2-0.1,2.2,0,1.8,1.4s1.4,3.6-1.5,4c-6.4,1-8.5,3.5-8.6,9.9
	c-0.1,4.4-0.2,8.8,0,13.2c0.1,2.1-0.8,2.3-2.5,2.2c-1.5-0.2-3.2,0.6-3.1-2.2c0.2-8.6,0.1-17.2,0-25.7c0-2,0.4-2.7,2.6-2.7
	s3.1,0.6,2.7,2.8C572.6,203.8,572.7,204.2,572.8,204.6z"/>
<path class="st1" d="M342.6,204.7c2.6-2.3,5.1-3.9,8.4-4.1c1.3-0.1,2.4,0,2,1.6c-0.3,1.4,1.4,3.6-1.7,3.9c-5.7,0.6-8.3,3.4-8.4,9.1
	c-0.1,4.6-0.2,9.2,0,13.8c0.1,2.3-1,2.4-2.7,2.3c-1.5-0.1-3.1,0.6-3-2.2c0.2-8.5,0.1-16.9,0-25.4c0-2,0.2-3,2.7-3s2.8,1,2.6,3
	C342.4,204,342.5,204.3,342.6,204.7z"/>
<path class="st1" d="M393.3,210c0-6.4,0.1-12.8-0.1-19.2c-0.1-2.2,0.8-2.5,2.6-2.4c1.6,0.1,3-0.4,3,2.3c-0.1,12.7-0.1,25.3,0,38
	c0,2.4-1.1,2.5-2.9,2.5s-2.7-0.1-2.6-2.4C393.5,222.5,393.4,216.2,393.3,210L393.3,210z"/>
<path class="st0" d="M105.9,108.8c0.3-0.1,0.5-0.9,0.8-0.4c0.2,0.6,0.2,1.2,0.1,1.8v98c0,0.3,0,0.6-0.1,1.3c-0.4-1-0.6-1.5-0.8-2.1
	l-0.1-96.8C105.8,110,105.9,109.4,105.9,108.8z"/>
<path class="st1" d="M119,30.9c-1-1-1.2-2,0-3C119.3,28.9,119.3,30,119,30.9z"/>
<g class="st2">
	<path class="st3" d="M454.1,167.6c-5.6,1.9-9.2-1.3-10.5-7.4c-1.5-6.4-5.4-7.8-11.5-7.3c-6.9,0.6-14,0.2-21,0.1
		c-2,0-3.1,0.6-3.8,2.5c-1.3,3.5-2.9,6.8-4.1,10.3c-0.3,1.2-1.4,2-2.6,1.8c-4.3-0.1-8.6-0.1-12.9,0c-2.2,0.1-1.8-0.8-1.2-2.1
		c8.3-18.6,16.5-37.2,24.7-55.9c1.4-3.1,2.8-6.2,4-9.4c0.4-1.4,1.7-2.3,3.1-2.1c4.2,0.1,8.4,0.1,12.6,0c1.2-0.1,2.3,0.6,2.7,1.8
		c8.3,18.4,16.5,36.8,24.8,55.2c1.6,3.6,3.2,7.1,4.9,10.6c0.6,1.3,0.4,1.8-1.1,1.8C459.9,167.5,457.5,167.6,454.1,167.6z
		 M424.4,114.7c-3.4,8.2-6.6,15.9-9.9,23.6c-0.6,1.5-0.2,2,1.4,1.9c4.5,0,9,0,13.5,0c6,0,6-0.1,3.6-5.4c-0.3-0.6-0.5-1.3-0.8-1.9
		C429.6,127,427.1,121.1,424.4,114.7L424.4,114.7z"/>
	<path class="st3" d="M357.2,97.1c7.4,0,14.7,1.7,21.4,5.1c1.7,0.9,2.4,1.7,1.4,3.7c-1.4,2.8-2.5,5.7-3.6,8.5c-0.4,1-0.9,1.5-2,0.9
		c-6.4-3.7-13.8-5.3-21.1-4.7c-2.6,0.1-5.1,0.9-7.3,2.5c-3.7,2.9-3.2,7.6,1,9.7c3.6,1.8,7.6,2.4,11.5,3.3c4.5,1.1,9,2,13.2,3.8
		c7.2,3.1,11.8,8.1,12,16.3c0.3,8.3-3.6,14.4-10.7,18.3c-8.9,4.9-18.6,4.8-28.3,3.4c-5.9-0.9-11.6-3-16.7-6.1c-1.7-1-2.2-2-1.2-3.8
		c1.4-2.5,2.6-5.2,3.6-7.9c0.8-2.2,1.7-2.2,3.4-1c7.1,4.8,15.7,6.9,24.2,6.1c2.3-0.1,4.5-0.8,6.5-2c4-2.5,4.1-6.9,0.2-9.5
		c-3.1-1.9-6.5-3.1-10.1-3.6c-4.8-0.9-9.5-2.2-14.1-3.9c-9-3.4-13-8.6-13.1-16.9s4.6-15.6,12.6-19C345.4,97.9,351.3,96.9,357.2,97.1
		z"/>
	<path class="st3" d="M313.6,98.6c2.6-0.9,3.7-0.2,3.5,2.7c-0.2,2.5-0.2,5,0,7.5c0.2,2.2-0.5,2.9-2.8,2.8c-10.3-0.2-20.6,0-30.9-0.1
		c-2.3,0-3.3,0.5-3.1,3c0.2,2.9,0.2,5.8,0,8.7c-0.1,2.2,0.8,2.6,2.8,2.6c9-0.1,18,0,27-0.1c2,0,2.9,0.4,2.7,2.6
		c-0.2,2.5-0.2,5,0,7.5c0.3,2.6-0.8,2.9-3.1,2.9c-8.6-0.1-17.2,0.1-25.8-0.2c-3.1-0.1-4,0.9-3.7,3.9c0.2,3.1,0.2,6.2,0,9.3
		c-0.1,2.1,0.7,2.7,2.8,2.7c10.8-0.1,21.6,0,32.4-0.1c2.4,0,3.1,0.6,2.9,3c-0.2,2.8,0,5.6,0,8.4c0,0.7,0.6,2-1.1,1.7
		c0.7-2,0.7-4.2,0.1-6.2c-0.2,0.9-0.2,1.8-0.2,2.6c0.1,1.9-0.7,2.7-2.6,2.7c-15.5,0-31,0-46.4,0c-2,0-2.6-0.9-2.6-2.8
		c0.1-2.7,0-5.4,0-8.1c0-17.6,0-35.2,0-52.8c0-2.1,0.4-2.9,2.7-3.3c3.1-0.5,6.2-0.2,9.2-0.3c11-0.4,22.1,0.7,33.1,0
		C311.7,99.2,312.9,99.9,313.6,98.6z"/>
	<path class="st3" d="M249.1,124.4c0,7.8,0.3,15.6-0.1,23.4c-0.6,11.7-7.5,19-19.1,20.6c-9.4,1.3-18.1-0.2-25.6-6.5
		c-3.5-2.9-3.5-3-0.7-6.5c1.6-2,3.4-3.9,4.9-6c1.3-1.8,2.1-1.5,3.4,0c3.4,3.7,7.5,6,12.7,5.6c5.4-0.4,8.2-3,8.5-9.3
		c0.5-10.8,0.2-21.6,0.3-32.4c0-1.9-1.3-1.7-2.5-1.7c-6.7,0-13.4-0.1-20.1,0.1c-2.1,0-2.6-0.6-2.5-2.5c0.1-2.9,0.1-5.8,0-8.7
		c0-1.4,0.2-2.2,1.9-2.2c12.4,0.1,24.7,0.1,37.1,0c2.1,0,1.9,1.1,1.9,2.5c0,7.9,0,15.8,0,23.7L249.1,124.4z"/>
	<path class="st3" d="M313.6,98.6c-0.8,1.3-2,0.6-3,0.7c-11,0.7-22.1-0.4-33.1,0c-3.1,0.1-6.1-0.2-9.2,0.3c-2.2,0.4-2.7,1.2-2.7,3.3
		c0.1,17.6,0,35.2,0,52.8c0,2.7,0.1,5.4,0,8.1c0,1.9,0.6,2.8,2.6,2.8c15.5,0,31,0,46.4,0c2,0,2.7-0.8,2.6-2.7
		c-0.1-0.9,0-1.8,0.2-2.6c0.6,2,0.6,4.2-0.1,6.2l-51.1,0.1c-0.7,0-1.5,0.2-1.7-0.8V99.2c0.1-0.2,0.1-0.5,0.2-0.7
		c0.4,0.2,0.9,0.2,1.4,0c9.4-0.1,18.7-0.2,28.1-0.2C300.7,98.4,307.2,98.1,313.6,98.6z"/>
	<path class="st3" d="M264.6,99.2v67.5C264.3,144.2,264.3,121.7,264.6,99.2z"/>
	<path class="st3" d="M266.2,98.5c-0.4,0.2-0.9,0.2-1.4,0C265.3,98,265.7,98.3,266.2,98.5z"/>
</g>
<path class="st1" d="M127.6,31.7c-2.7,2.1-4.7,0.6-6.6,0.6C122.9,31.2,124.9,31.7,127.6,31.7z"/>
<title>logo-jesa</title>
<g id="Layer_3">
	<path class="st0" d="M449.5,116.8c-0.6,1.6-1.2,3.1-1.8,4.9c-5.5,15-11.1,30.1-16.6,45.1c-0.2,0.4-0.4,0.8-1,0.8h-25.6l2.2-4.9
		l20.1-44.1l8.6-18.9c0.2-0.4,0.6-0.8,1-0.6h27c0.4,0,1,0.2,1,0.6L495,167c0,0.2,0.2,0.4,0.2,0.6h-26.2c-0.6,0-1-0.2-1.2-0.8
		c-1.2-3.3-2.3-6.4-3.7-9.8c-0.2-0.6-0.6-0.8-1-0.8h-23.6c0.6-1.7,1.2-3.4,2-5.1c1.2-2.9,2.3-5.9,3.3-9c0.2-0.6,0.8-1,1.4-1h12.7
		C455.8,133.2,452.8,125,449.5,116.8L449.5,116.8z"/>
	<path class="st0" d="M333.3,144.6l23.6-1.2c0.4,1.4,0.8,2.7,1.4,4.1c1.6,3.7,4.7,6.2,8.6,6.8c3.3,0.8,6.6,0.6,10-0.2
		c1.8-0.6,3.5-1.6,4.7-3.1c1.6-2,1.6-4.7-0.2-6.4c-1.4-1.6-3.3-2.7-5.5-3.1c-3.5-1-7-1.7-10.5-2.3c-6.6-1.4-13.1-3.3-18.9-6
		c-3.1-1.6-5.9-3.7-7.8-6.4c-3.5-5.5-3.1-12.5,1-17.6c2.9-3.5,6.8-6.1,11.3-7.4c3.8-1.4,7.8-2.2,11.9-2.3c3.3-0.2,6.4-0.4,9.8-0.2
		c6.1,0,12.2,1,18,2.9c7.4,2.3,12.7,8.9,13.5,16.6v0.4l-23.4,1.2c-0.2-0.6-0.4-1.4-0.6-2c-0.8-2.7-2.9-4.9-5.5-5.7
		c-3.5-1.4-7.6-1.4-11.3-0.2c-1,0.4-1.8,0.8-2.5,1.4c-1.6,1.2-2,3.3-0.8,4.9c0.4,0.6,1,1,1.8,1.2c1.9,0.8,3.9,1.3,5.9,1.8
		c6.8,1.4,13.7,2.5,20.5,4.5c4.3,1.2,8.4,2.9,11.9,5.7c4.5,3.3,7.2,8.6,6.8,14.3c-0.2,4.3-1.8,8.2-4.5,11.3
		c-3.6,4.2-8.5,7.2-13.9,8.6c-4.3,1.2-8.8,1.8-13.3,2c-6.4,0.4-12.8,0-19.1-1.2c-4.5-0.6-9-2.2-12.7-4.7c-5.5-3.9-9-9.8-9.8-16.4
		C333.3,145,333.3,144.8,333.3,144.6z"/>
	<path class="st0" d="M328,125.8v13.1h-25.6V153h25.4v14.6h-50.8V98.9h50.8v13.9h-25.4v13.1L328,125.8L328,125.8z"/>
	<path class="st0" d="M241.9,99.1h25.4v37.3c0,4.3-0.4,8.5-1.2,12.7c-1.2,5.5-4.7,10.4-9.6,13.1c-4.1,2.5-8.6,4.1-13.5,4.7
		c-7.4,1-14.8,0.6-22.1-0.8c-4.3-0.8-8.2-2.7-11.5-5.5c-4.1-3.5-6.8-8.2-7.6-13.5c-0.4-1.6-0.4-3.3-0.8-5.1l2.9-0.2l14.8-0.8
		c2,0,3.9-0.2,6.1-0.4c0.6,0,0.8,0.2,0.8,0.8c0,1.5,0.2,3,0.6,4.5c0.8,3.7,4.3,6.2,8,5.7c0.8,0,1.8-0.2,2.5-0.4
		c2.3-0.8,4.1-2.7,4.5-5.3c0.4-1.6,0.6-3.2,0.6-4.9L241.9,99.1z"/>
</g>
</svg>
